<svg width="15" height="16" viewBox="0 0 15 16" fill="none" xmlns="http://www.w3.org/2000/svg">
<path d="M1.25 2.375H5C5.66304 2.375 6.29893 2.63839 6.76777 3.10723C7.23661 3.57607 7.5 4.21196 7.5 4.875V13.625C7.5 13.1277 7.30246 12.6508 6.95083 12.2992C6.59919 11.9475 6.12228 11.75 5.625 11.75H1.25V2.375Z" stroke="black" stroke-width="1.5" stroke-linecap="round" stroke-linejoin="round"/>
<path d="M13.75 2.375H10C9.33696 2.375 8.70107 2.63839 8.23223 3.10723C7.76339 3.57607 7.5 4.21196 7.5 4.875V13.625C7.5 13.1277 7.69754 12.6508 8.04917 12.2992C8.40081 11.9475 8.87772 11.75 9.375 11.75H13.75V2.375Z" stroke="black" stroke-width="1.5" stroke-linecap="round" stroke-linejoin="round"/>
</svg>
