<svg width="25" height="24" viewBox="0 0 25 24" fill="none" xmlns="http://www.w3.org/2000/svg">
<path fill-rule="evenodd" clip-rule="evenodd" d="M5.33398 1.25C5.74819 1.25 6.08398 1.58579 6.08398 2V6C6.08398 6.41421 5.74819 6.75 5.33398 6.75C4.91977 6.75 4.58398 6.41421 4.58398 6V2C4.58398 1.58579 4.91977 1.25 5.33398 1.25Z" fill="#FEFEFE"/>
<path fill-rule="evenodd" clip-rule="evenodd" d="M19.334 1.25C19.7482 1.25 20.084 1.58579 20.084 2V6C20.084 6.41421 19.7482 6.75 19.334 6.75C18.9198 6.75 18.584 6.41421 18.584 6V2C18.584 1.58579 18.9198 1.25 19.334 1.25Z" fill="#FEFEFE"/>
<path fill-rule="evenodd" clip-rule="evenodd" d="M1.91406 14.4167V12.3333C1.91406 9.20833 1.91406 3.25 9.20581 3.25H15.4558C22.7476 3.25 22.7476 9.20833 22.7476 12.3333V14.4167C22.7476 17.5417 22.7476 22.75 15.4558 22.75H9.20581C1.91406 22.75 1.91406 17.5417 1.91406 14.4167ZM6.83404 16.25C6.41983 16.25 6.08404 16.5858 6.08404 17C6.08404 17.4142 6.41983 17.75 6.83404 17.75H7.83404C8.24825 17.75 8.58404 17.4142 8.58404 17C8.58404 16.5858 8.24825 16.25 7.83404 16.25H6.83404ZM6.08404 13C6.08404 12.5858 6.41983 12.25 6.83404 12.25H7.83404C8.24825 12.25 8.58404 12.5858 8.58404 13C8.58404 13.4142 8.24825 13.75 7.83404 13.75H6.83404C6.41983 13.75 6.08404 13.4142 6.08404 13ZM6.83404 8.25C6.41983 8.25 6.08404 8.58579 6.08404 9C6.08404 9.41421 6.41983 9.75 6.83404 9.75H7.83404C8.24825 9.75 8.58404 9.41421 8.58404 9C8.58404 8.58579 8.24825 8.25 7.83404 8.25H6.83404ZM11.084 17C11.084 16.5858 11.4198 16.25 11.834 16.25H12.834C13.2482 16.25 13.584 16.5858 13.584 17C13.584 17.4142 13.2482 17.75 12.834 17.75H11.834C11.4198 17.75 11.084 17.4142 11.084 17ZM11.834 12.25C11.4198 12.25 11.084 12.5858 11.084 13C11.084 13.4142 11.4198 13.75 11.834 13.75H12.834C13.2482 13.75 13.584 13.4142 13.584 13C13.584 12.5858 13.2482 12.25 12.834 12.25H11.834ZM11.084 9C11.084 8.58579 11.4198 8.25 11.834 8.25H12.834C13.2482 8.25 13.584 8.58579 13.584 9C13.584 9.41421 13.2482 9.75 12.834 9.75H11.834C11.4198 9.75 11.084 9.41421 11.084 9ZM16.834 16.25C16.4198 16.25 16.084 16.5858 16.084 17C16.084 17.4142 16.4198 17.75 16.834 17.75H17.834C18.2482 17.75 18.584 17.4142 18.584 17C18.584 16.5858 18.2482 16.25 17.834 16.25H16.834ZM16.084 13C16.084 12.5858 16.4198 12.25 16.834 12.25H17.834C18.2482 12.25 18.584 12.5858 18.584 13C18.584 13.4142 18.2482 13.75 17.834 13.75H16.834C16.4198 13.75 16.084 13.4142 16.084 13ZM16.834 8.25C16.4198 8.25 16.084 8.58579 16.084 9C16.084 9.41421 16.4198 9.75 16.834 9.75H17.834C18.2482 9.75 18.584 9.41421 18.584 9C18.584 8.58579 18.2482 8.25 17.834 8.25H16.834Z" fill="#FEFEFE"/>
</svg>
