<svg width="37" height="35" viewBox="0 0 37 35" fill="none" xmlns="http://www.w3.org/2000/svg">
<g clip-path="url(#clip0_224_1766)">
<path d="M7.31516 8.36595V33.6273C6.33756 34.4842 5.05937 35 3.65758 35C2.25579 35 0.977602 34.4842 0 33.6273V8.36595C0.977602 9.22284 2.25579 9.74149 3.65758 9.74149C5.05937 9.74149 6.33756 9.22284 7.31516 8.36877V8.36595Z" fill="#567CB3"/>
<path d="M37 0V33.6273C36.0224 34.4814 34.7442 35 33.3424 35C31.9406 35 30.6624 34.4814 29.6848 33.6273V0H29.7101C30.6849 0.842796 31.9547 1.35298 33.3424 1.35298C34.7301 1.35298 35.9999 0.842796 36.9747 0H37Z" fill="#567CB3"/>
<path d="M29.6848 5.33583L13.6555 34.8675C12.3885 35.1494 11.0204 34.9915 9.79002 34.3179C8.55959 33.6442 7.68311 32.5759 7.23364 31.3582L23.2601 1.82653L23.2826 1.8378C23.7377 3.04703 24.6086 4.10405 25.8278 4.76927C27.0469 5.43449 28.4038 5.59797 29.6623 5.32456L29.6848 5.33583Z" fill="#567CB3"/>
<path d="M7.31516 0V7.23001C6.33756 8.08408 5.05937 8.60272 3.65758 8.60272C2.25579 8.60272 0.977602 8.08408 0 7.22719V0H0.0252828C1.00008 0.839977 2.26984 1.35017 3.65758 1.35017C5.04533 1.35017 6.31509 0.842796 7.28988 0H7.31516Z" fill="#567CB3"/>
</g>
<defs>
<clipPath id="clip0_224_1766">
<rect width="37" height="35" fill="white"/>
</clipPath>
</defs>
</svg>
