<svg width="19" height="19" viewBox="0 0 19 19" fill="none" xmlns="http://www.w3.org/2000/svg">
<path d="M16.625 7.91663C16.625 13.4583 9.5 18.2083 9.5 18.2083C9.5 18.2083 2.375 13.4583 2.375 7.91663C2.375 6.02696 3.12567 4.21469 4.46186 2.87849C5.79806 1.54229 7.61033 0.791626 9.5 0.791626C11.3897 0.791626 13.2019 1.54229 14.5381 2.87849C15.8743 4.21469 16.625 6.02696 16.625 7.91663Z" stroke="#A19691" stroke-width="1.5" stroke-linecap="round" stroke-linejoin="round"/>
<path d="M9.5 10.2916C10.8117 10.2916 11.875 9.2283 11.875 7.91663C11.875 6.60495 10.8117 5.54163 9.5 5.54163C8.18832 5.54163 7.125 6.60495 7.125 7.91663C7.125 9.2283 8.18832 10.2916 9.5 10.2916Z" stroke="#A19691" stroke-width="1.5" stroke-linecap="round" stroke-linejoin="round"/>
</svg>
