<svg width="69" height="69" viewBox="0 0 69 69" fill="none" xmlns="http://www.w3.org/2000/svg">
<rect width="69" height="69" rx="16" fill="white"/>
<path d="M23.3152 25.3656V50.627C22.3376 51.4839 21.0594 51.9997 19.6576 51.9997C18.2558 51.9997 16.9776 51.4839 16 50.627V25.3656C16.9776 26.2225 18.2558 26.7412 19.6576 26.7412C21.0594 26.7412 22.3376 26.2225 23.3152 25.3685V25.3656Z" fill="#567CB3"/>
<path d="M53 16.9997V50.627C52.0224 51.481 50.7442 51.9997 49.3424 51.9997C47.9406 51.9997 46.6624 51.481 45.6848 50.627V16.9997H45.7101C46.6849 17.8425 47.9547 18.3527 49.3424 18.3527C50.7302 18.3527 51.9999 17.8425 52.9747 16.9997H53Z" fill="#567CB3"/>
<path d="M45.6848 22.3355L29.6555 51.8672C28.3886 52.1491 27.0205 51.9912 25.7901 51.3176C24.5596 50.6439 23.6832 49.5756 23.2337 48.3579L39.2602 18.8262L39.2827 18.8375C39.7378 20.0467 40.6086 21.1037 41.8278 21.769C43.047 22.4342 44.4038 22.5977 45.6624 22.3242L45.6848 22.3355Z" fill="#567CB3"/>
<path d="M23.3152 16.9997V24.2297C22.3376 25.0838 21.0594 25.6024 19.6576 25.6024C18.2558 25.6024 16.9776 25.0838 16 24.2269V16.9997H16.0253C17.0001 17.8397 18.2698 18.3499 19.6576 18.3499C21.0453 18.3499 22.3151 17.8425 23.2899 16.9997H23.3152Z" fill="#567CB3"/>
</svg>
